<?xml version="1.0" encoding="iso-8859-1"?>
<!-- Generator: Adobe Illustrator 19.0.0, SVG Export Plug-In . SVG Version: 6.00 Build 0)  -->
<svg version="1.1" id="Layer_1" xmlns="http://www.w3.org/2000/svg" xmlns:xlink="http://www.w3.org/1999/xlink" x="0px" y="0px"
	 viewBox="0 0 511.999 511.999" style="enable-background:new 0 0 511.999 511.999;" xml:space="preserve">
<g>
	<g>
		<path d="M443.924,444.993h-30.983V260.658c0-43.257-16.308-84-45.999-115.205l0.474-0.474l3.711,3.706
			c4.67,4.667,12.243,4.667,16.916-0.005l32.658-32.658c4.668-4.67,4.675-12.251-0.002-16.923L325.086,3.503
			c-4.671-4.67-12.251-4.671-16.923,0.003l-32.642,32.658c-4.671,4.673-4.67,12.248,0.002,16.921l3.697,3.697l-102.66,102.675
			c-4.673,4.673-4.671,12.25,0,16.921l10.844,10.844l-24.198,24.198c-4.673,4.673-4.673,12.248,0,16.921l32.658,32.658
			c4.675,4.673,12.25,4.671,16.923,0l24.198-24.198l10.844,10.844c4.675,4.673,12.248,4.671,16.921,0l45.763-45.763
			c14.644,16.146,22.658,36.851,22.658,58.775v103.415h-52.961V339.67c0-6.61-5.357-11.966-11.966-11.966H159.266
			c-6.608,0-11.966,5.356-11.966,11.966v24.442c-18.102,0.431-32.703,15.26-32.703,33.464c0,18.473,15.029,33.504,33.504,33.504
			H333.17v13.912H89.613c-18.475,0-33.504,15.03-33.504,33.504c0,18.441,14.888,33.504,33.504,33.504h354.31
			c6.608,0,11.966-5.356,11.966-11.966v-43.076C455.889,450.349,450.532,444.993,443.924,444.993z M316.629,28.889l78.688,78.675
			l-15.742,15.742c-31.971-31.975-71.146-71.157-78.672-78.683L316.629,28.889z M204.322,235.617l-15.736-15.736l15.736-15.737
			l15.737,15.737L204.322,235.617z M256.287,222.263c-31.736-31.738-33.55-33.55-54.346-54.346l94.198-94.211l53.809,53.818
			l0.541,0.541C340.63,137.92,266.043,212.506,256.287,222.263z M171.232,351.637h85.045v12.436h-85.045V351.637z M431.958,488.069
			H89.613c-5.383,0-9.573-4.346-9.573-9.573c0-5.279,4.293-9.573,9.573-9.573h255.522c6.608,0,11.966-5.356,11.966-11.966v-37.843
			c0-6.61-5.357-11.966-11.966-11.966H148.101c-5.279,0-9.573-4.293-9.573-9.573s4.293-9.573,9.573-9.573c0,0,192.656,0,197.034,0
			c6.608,0,11.966-5.356,11.966-11.966V260.658c0-28.312-10.491-55.024-29.652-75.714l22.564-22.564
			c25.182,26.691,38.997,61.422,38.997,98.278v196.3c0,6.61,5.357,11.966,11.966,11.966h30.983V488.069z"/>
	</g>
</g>
<g>
</g>
<g>
</g>
<g>
</g>
<g>
</g>
<g>
</g>
<g>
</g>
<g>
</g>
<g>
</g>
<g>
</g>
<g>
</g>
<g>
</g>
<g>
</g>
<g>
</g>
<g>
</g>
<g>
</g>
</svg>
