<?xml version="1.0" encoding="iso-8859-1"?>
<!-- Generator: Adobe Illustrator 19.0.0, SVG Export Plug-In . SVG Version: 6.00 Build 0)  -->
<svg version="1.1" id="Layer_1" xmlns="http://www.w3.org/2000/svg" xmlns:xlink="http://www.w3.org/1999/xlink" x="0px" y="0px"
	 viewBox="0 0 512 512" style="enable-background:new 0 0 512 512;" xml:space="preserve">
<g>
	<g>
		<path d="M501.801,35.665H10.199C4.567,35.665,0,40.231,0,45.864v420.271c0,5.633,4.567,10.199,10.199,10.199h491.602
			c5.632,0,10.199-4.566,10.199-10.199V45.864C512,40.231,507.433,35.665,501.801,35.665z M491.602,455.938H20.398V56.063h471.203
			V455.938z"/>
	</g>
</g>
<g>
	<g>
		<path d="M467.11,70.342H44.891c-5.632,0-10.199,4.566-10.199,10.199v301.961c0,5.634,4.566,10.2,10.199,10.2h422.22
			c5.632,0,10.199-4.566,10.199-10.199V80.542C477.309,74.909,472.742,70.342,467.11,70.342z M55.09,90.741h401.82v126.503h-64.896
			l-35.007-26.491c-2.599-1.967-5.981-2.573-9.104-1.631c-3.121,0.942-5.602,3.32-6.678,6.397L303.15,304.413l-32.005-182.762
			c-0.781-4.462-4.413-7.876-8.916-8.377c-4.51-0.507-8.797,2.028-10.542,6.208l-51.313,122.975l-39.623-67.117
			c-1.752-2.968-4.885-4.851-8.329-5.004c-3.452-0.149-6.732,1.443-8.741,4.244l-30.606,42.662H55.09V90.741z M456.911,372.304
			H55.09V237.642h63.221c3.287,0,6.371-1.584,8.287-4.254l24.54-34.207l42.024,71.183c1.963,3.325,5.629,5.261,9.486,4.99
			c3.851-0.266,7.223-2.684,8.709-6.247l45.716-109.562l32.738,186.947c0.801,4.572,4.589,8.028,9.215,8.406
			c0.28,0.022,0.559,0.035,0.835,0.034c4.302,0,8.183-2.716,9.623-6.832l46.377-132.635l26.575,20.111
			c1.772,1.34,3.932,2.066,6.154,2.066h68.32V372.304z"/>
	</g>
</g>
<g>
	<g>
		<path d="M85.673,399.809H45.19c-5.632,0-10.199,4.566-10.199,10.199v27.603c0,5.633,4.567,10.199,10.199,10.199h40.484
			c5.632,0,10.199-4.566,10.199-10.199v-27.603C95.872,404.375,91.305,399.809,85.673,399.809z M75.474,427.412H55.389v-7.205
			h20.085V427.412z"/>
	</g>
</g>
<g>
	<g>
		<path d="M163.187,399.809h-40.484c-5.632,0-10.199,4.566-10.199,10.199v27.603c0,5.633,4.567,10.199,10.199,10.199h40.484
			c5.632,0,10.199-4.566,10.199-10.199v-27.603C173.386,404.375,168.819,399.809,163.187,399.809z M152.988,427.412h-20.085v-7.205
			h20.085V427.412z"/>
	</g>
</g>
<g>
	<g>
		<path d="M347.793,414.088h-9.179c-5.632,0-10.199,4.566-10.199,10.199s4.567,10.199,10.199,10.199h9.179
			c5.632,0,10.199-4.566,10.199-10.199S353.425,414.088,347.793,414.088z"/>
	</g>
</g>
<g>
	<g>
		<path d="M467.124,414.088H382.47c-5.632,0-10.199,4.566-10.199,10.199s4.567,10.199,10.199,10.199h84.653
			c5.632,0,10.199-4.566,10.199-10.199S472.755,414.088,467.124,414.088z"/>
	</g>
</g>
<g>
</g>
<g>
</g>
<g>
</g>
<g>
</g>
<g>
</g>
<g>
</g>
<g>
</g>
<g>
</g>
<g>
</g>
<g>
</g>
<g>
</g>
<g>
</g>
<g>
</g>
<g>
</g>
<g>
</g>
</svg>
